<!--<svg width="42" height="42" xmlns="http://www.w3.org/2000/svg">-->
<!-- <g>-->
<!--  <path fill="#070707" d="m6.717392,13.773912l5.6,0c2.8,0 4.7,1.9 4.7,4.7c0,2.8 -2,4.7 -4.9,4.7l-2.5,0l0,4.3l-2.9,0l0,-13.7zm2.9,2.2l0,4.9l1.9,0c1.6,0 2.6,-0.9 2.6,-2.4c0,-1.6 -0.9,-2.4 -2.6,-2.4l-1.9,0l0,-0.1zm8.9,11.5l2.7,0l0,-5.7c0,-1.4 0.8,-2.3 2.2,-2.3c0.4,0 0.8,0.1 1,0.2l0,-2.4c-0.2,-0.1 -0.5,-0.1 -0.8,-0.1c-1.2,0 -2.1,0.7 -2.4,2l-0.1,0l0,-1.9l-2.7,0l0,10.2l0.1,0zm11.7,0.1c-3.1,0 -5,-2 -5,-5.3c0,-3.3 2,-5.3 5,-5.3s5,2 5,5.3c0,3.4 -1.9,5.3 -5,5.3zm0,-2.1c1.4,0 2.2,-1.1 2.2,-3.2c0,-2 -0.8,-3.2 -2.2,-3.2c-1.4,0 -2.2,1.2 -2.2,3.2c0,2.1 0.8,3.2 2.2,3.2z" class="st0" id="Ant-Design-Pro"/>-->
<!-- </g>-->
<!--</svg>-->
<svg t="1721288625965" class="icon" viewBox="0 0 1033 1024" version="1.1" xmlns="http://www.w3.org/2000/svg" p-id="3868" xmlns:xlink="http://www.w3.org/1999/xlink" width="201.7578125" height="200"><path d="M0 197.797058m108.406521-28.832589l526.886667-140.134623q108.406521-28.832589 137.239111 79.573932l140.134622 526.886667q28.832589 108.406521-79.573932 137.239111l-526.886667 140.134622q-108.406521 28.832589-137.239111-79.573932l-140.134622-526.886667q-28.832589-108.406521 79.573932-137.23911Z" fill="#0F62FE" p-id="3869"></path><path d="M262.810642 253.195618m160.250391 0l449.053646 0q160.250391 0 160.250391 160.250391l0 449.053647q0 160.250391-160.250391 160.250391l-449.053646 0q-160.250391 0-160.250391-160.250391l0-449.053647q0-160.250391 160.250391-160.250391Z" fill="#C1D0FF" fill-opacity=".4" p-id="3870"></path><path d="M463.123631 611.981822c0-17.701258 14.34882-32.050078 32.050078-32.050079h8.012519c17.701258 0 32.050078 14.34882 32.050079 32.050079v224.355355h-72.112676V611.981822zM612.694936 469.533646c0-17.701258 14.34882-32.050078 32.050078-32.050078h8.01252c17.701258 0 32.050078 14.34882 32.050078 32.050078v366.805133h-72.112676V469.533646zM762.266241 560.344338c0-17.701258 14.34882-32.050078 32.050078-32.050078h8.01252c17.701258 0 32.050078 14.34882 32.050078 32.050078v275.994441h-72.112676V560.344338z"
                                                                                                                                                                                                                                                                                                                                                                                                                                                                                                                                                                                                                                                                                                                                                                                                                                                                   fill="#FFFFFF" p-id="3871"></path></svg>
